<mxfile host="app.diagrams.net" modified="2022-02-13T09:31:34.925Z" agent="5.0 (Windows NT 10.0; Win64; x64) AppleWebKit/537.36 (KHTML, like Gecko) Chrome/98.0.4758.82 Safari/537.36" etag="MoGbyrK8pzp8zzALgZls" version="16.5.6" type="github">
  <diagram id="C5RBs43oDa-KdzZeNtuy" name="Page-1">
    <mxGraphModel dx="1038" dy="547" grid="1" gridSize="10" guides="1" tooltips="1" connect="1" arrows="1" fold="1" page="1" pageScale="1" pageWidth="827" pageHeight="1169" math="0" shadow="0">
      <root>
        <mxCell id="WIyWlLk6GJQsqaUBKTNV-0" />
        <mxCell id="WIyWlLk6GJQsqaUBKTNV-1" parent="WIyWlLk6GJQsqaUBKTNV-0" />
        <mxCell id="dQcE4N8BdVYJ3zXCObv3-2" value="" style="edgeStyle=orthogonalEdgeStyle;rounded=0;orthogonalLoop=1;jettySize=auto;html=1;" edge="1" parent="WIyWlLk6GJQsqaUBKTNV-1" source="dQcE4N8BdVYJ3zXCObv3-0" target="dQcE4N8BdVYJ3zXCObv3-1">
          <mxGeometry relative="1" as="geometry" />
        </mxCell>
        <mxCell id="dQcE4N8BdVYJ3zXCObv3-0" value="开始" style="strokeWidth=2;html=1;shape=mxgraph.flowchart.start_1;whiteSpace=wrap;" vertex="1" parent="WIyWlLk6GJQsqaUBKTNV-1">
          <mxGeometry x="140" y="160" width="100" height="40" as="geometry" />
        </mxCell>
        <mxCell id="dQcE4N8BdVYJ3zXCObv3-6" value="" style="edgeStyle=orthogonalEdgeStyle;rounded=0;orthogonalLoop=1;jettySize=auto;html=1;" edge="1" parent="WIyWlLk6GJQsqaUBKTNV-1" source="dQcE4N8BdVYJ3zXCObv3-1" target="dQcE4N8BdVYJ3zXCObv3-5">
          <mxGeometry relative="1" as="geometry" />
        </mxCell>
        <mxCell id="dQcE4N8BdVYJ3zXCObv3-1" value="点击发布职位" style="whiteSpace=wrap;html=1;strokeWidth=2;" vertex="1" parent="WIyWlLk6GJQsqaUBKTNV-1">
          <mxGeometry x="130" y="230" width="120" height="40" as="geometry" />
        </mxCell>
        <mxCell id="dQcE4N8BdVYJ3zXCObv3-10" value="" style="edgeStyle=orthogonalEdgeStyle;rounded=0;orthogonalLoop=1;jettySize=auto;html=1;" edge="1" parent="WIyWlLk6GJQsqaUBKTNV-1" source="dQcE4N8BdVYJ3zXCObv3-5" target="dQcE4N8BdVYJ3zXCObv3-9">
          <mxGeometry relative="1" as="geometry" />
        </mxCell>
        <mxCell id="dQcE4N8BdVYJ3zXCObv3-5" value="填写职位信息" style="whiteSpace=wrap;html=1;strokeWidth=2;" vertex="1" parent="WIyWlLk6GJQsqaUBKTNV-1">
          <mxGeometry x="130" y="320" width="120" height="40" as="geometry" />
        </mxCell>
        <mxCell id="dQcE4N8BdVYJ3zXCObv3-11" value="否" style="edgeStyle=orthogonalEdgeStyle;rounded=0;orthogonalLoop=1;jettySize=auto;html=1;entryX=1;entryY=0.25;entryDx=0;entryDy=0;" edge="1" parent="WIyWlLk6GJQsqaUBKTNV-1" source="dQcE4N8BdVYJ3zXCObv3-9" target="dQcE4N8BdVYJ3zXCObv3-5">
          <mxGeometry relative="1" as="geometry">
            <Array as="points">
              <mxPoint x="270" y="440" />
              <mxPoint x="270" y="330" />
            </Array>
          </mxGeometry>
        </mxCell>
        <mxCell id="dQcE4N8BdVYJ3zXCObv3-15" value="是" style="edgeStyle=orthogonalEdgeStyle;rounded=0;orthogonalLoop=1;jettySize=auto;html=1;" edge="1" parent="WIyWlLk6GJQsqaUBKTNV-1" source="dQcE4N8BdVYJ3zXCObv3-9" target="dQcE4N8BdVYJ3zXCObv3-14">
          <mxGeometry relative="1" as="geometry" />
        </mxCell>
        <mxCell id="dQcE4N8BdVYJ3zXCObv3-9" value="发布" style="rhombus;whiteSpace=wrap;html=1;strokeWidth=2;" vertex="1" parent="WIyWlLk6GJQsqaUBKTNV-1">
          <mxGeometry x="145" y="410" width="90" height="60" as="geometry" />
        </mxCell>
        <mxCell id="dQcE4N8BdVYJ3zXCObv3-17" value="" style="edgeStyle=orthogonalEdgeStyle;rounded=0;orthogonalLoop=1;jettySize=auto;html=1;" edge="1" parent="WIyWlLk6GJQsqaUBKTNV-1" source="dQcE4N8BdVYJ3zXCObv3-14" target="dQcE4N8BdVYJ3zXCObv3-16">
          <mxGeometry relative="1" as="geometry" />
        </mxCell>
        <mxCell id="dQcE4N8BdVYJ3zXCObv3-14" value="发布成功&lt;br&gt;求职/实习区展示" style="whiteSpace=wrap;html=1;strokeWidth=2;" vertex="1" parent="WIyWlLk6GJQsqaUBKTNV-1">
          <mxGeometry x="130" y="520" width="120" height="60" as="geometry" />
        </mxCell>
        <mxCell id="dQcE4N8BdVYJ3zXCObv3-16" value="结束" style="ellipse;whiteSpace=wrap;html=1;strokeWidth=2;" vertex="1" parent="WIyWlLk6GJQsqaUBKTNV-1">
          <mxGeometry x="130" y="600" width="120" height="40" as="geometry" />
        </mxCell>
        <mxCell id="dQcE4N8BdVYJ3zXCObv3-19" value="" style="edgeStyle=orthogonalEdgeStyle;rounded=0;orthogonalLoop=1;jettySize=auto;html=1;" edge="1" parent="WIyWlLk6GJQsqaUBKTNV-1" source="dQcE4N8BdVYJ3zXCObv3-20" target="dQcE4N8BdVYJ3zXCObv3-22">
          <mxGeometry relative="1" as="geometry" />
        </mxCell>
        <mxCell id="dQcE4N8BdVYJ3zXCObv3-20" value="开始" style="strokeWidth=2;html=1;shape=mxgraph.flowchart.start_1;whiteSpace=wrap;" vertex="1" parent="WIyWlLk6GJQsqaUBKTNV-1">
          <mxGeometry x="370" y="160" width="100" height="40" as="geometry" />
        </mxCell>
        <mxCell id="dQcE4N8BdVYJ3zXCObv3-21" value="" style="edgeStyle=orthogonalEdgeStyle;rounded=0;orthogonalLoop=1;jettySize=auto;html=1;" edge="1" parent="WIyWlLk6GJQsqaUBKTNV-1" source="dQcE4N8BdVYJ3zXCObv3-22" target="dQcE4N8BdVYJ3zXCObv3-24">
          <mxGeometry relative="1" as="geometry" />
        </mxCell>
        <mxCell id="dQcE4N8BdVYJ3zXCObv3-22" value="查看已发布职位" style="whiteSpace=wrap;html=1;strokeWidth=2;" vertex="1" parent="WIyWlLk6GJQsqaUBKTNV-1">
          <mxGeometry x="360" y="230" width="120" height="40" as="geometry" />
        </mxCell>
        <mxCell id="dQcE4N8BdVYJ3zXCObv3-23" value="" style="edgeStyle=orthogonalEdgeStyle;rounded=0;orthogonalLoop=1;jettySize=auto;html=1;" edge="1" parent="WIyWlLk6GJQsqaUBKTNV-1" source="dQcE4N8BdVYJ3zXCObv3-24" target="dQcE4N8BdVYJ3zXCObv3-27">
          <mxGeometry relative="1" as="geometry" />
        </mxCell>
        <mxCell id="dQcE4N8BdVYJ3zXCObv3-24" value="修改职位信息" style="whiteSpace=wrap;html=1;strokeWidth=2;" vertex="1" parent="WIyWlLk6GJQsqaUBKTNV-1">
          <mxGeometry x="360" y="320" width="120" height="40" as="geometry" />
        </mxCell>
        <mxCell id="dQcE4N8BdVYJ3zXCObv3-25" value="否" style="edgeStyle=orthogonalEdgeStyle;rounded=0;orthogonalLoop=1;jettySize=auto;html=1;entryX=1;entryY=0.25;entryDx=0;entryDy=0;" edge="1" parent="WIyWlLk6GJQsqaUBKTNV-1" source="dQcE4N8BdVYJ3zXCObv3-27" target="dQcE4N8BdVYJ3zXCObv3-24">
          <mxGeometry relative="1" as="geometry">
            <Array as="points">
              <mxPoint x="500" y="440" />
              <mxPoint x="500" y="330" />
            </Array>
          </mxGeometry>
        </mxCell>
        <mxCell id="dQcE4N8BdVYJ3zXCObv3-26" value="是" style="edgeStyle=orthogonalEdgeStyle;rounded=0;orthogonalLoop=1;jettySize=auto;html=1;" edge="1" parent="WIyWlLk6GJQsqaUBKTNV-1" source="dQcE4N8BdVYJ3zXCObv3-27" target="dQcE4N8BdVYJ3zXCObv3-29">
          <mxGeometry relative="1" as="geometry" />
        </mxCell>
        <mxCell id="dQcE4N8BdVYJ3zXCObv3-27" value="保存" style="rhombus;whiteSpace=wrap;html=1;strokeWidth=2;" vertex="1" parent="WIyWlLk6GJQsqaUBKTNV-1">
          <mxGeometry x="375" y="410" width="90" height="60" as="geometry" />
        </mxCell>
        <mxCell id="dQcE4N8BdVYJ3zXCObv3-28" value="" style="edgeStyle=orthogonalEdgeStyle;rounded=0;orthogonalLoop=1;jettySize=auto;html=1;" edge="1" parent="WIyWlLk6GJQsqaUBKTNV-1" source="dQcE4N8BdVYJ3zXCObv3-29" target="dQcE4N8BdVYJ3zXCObv3-30">
          <mxGeometry relative="1" as="geometry" />
        </mxCell>
        <mxCell id="dQcE4N8BdVYJ3zXCObv3-29" value="修改成功&lt;br&gt;更新求职/实习区展示" style="whiteSpace=wrap;html=1;strokeWidth=2;" vertex="1" parent="WIyWlLk6GJQsqaUBKTNV-1">
          <mxGeometry x="360" y="520" width="120" height="60" as="geometry" />
        </mxCell>
        <mxCell id="dQcE4N8BdVYJ3zXCObv3-30" value="结束" style="ellipse;whiteSpace=wrap;html=1;strokeWidth=2;" vertex="1" parent="WIyWlLk6GJQsqaUBKTNV-1">
          <mxGeometry x="360" y="600" width="120" height="40" as="geometry" />
        </mxCell>
      </root>
    </mxGraphModel>
  </diagram>
</mxfile>
